<svg width="491" height="614" viewBox="0 0 491 614" fill="none" xmlns="http://www.w3.org/2000/svg">
<path d="M140.032 483.92L474.169 459.238L480.111 542.522L146.344 569.369L140.032 483.92Z" fill="#28234C"/>
<path d="M98.127 525.176L435.972 512.868L438.889 598.729L101.337 613.279L98.127 525.176Z" fill="#BACDEE"/>
<path d="M5.66357 385.609L343.705 408.002L337.975 491.3L0.000176298 471.104L5.66357 385.609Z" fill="#608CD7"/>
<path d="M129.056 250.685L452.147 355.015L426.288 434.405L102.727 332.221L129.056 250.685Z" fill="#4765BF"/>
<path d="M116.94 0L452.307 37.8686L442.729 120.812L107.327 85.141L116.94 0Z" fill="#2D235F"/>
<path d="M122.341 102.52L459.767 95.5722L461.275 179.054L124.105 188.183L122.341 102.52Z" fill="#476AA0"/>
<path d="M151.419 145.658L490.36 165.45L485.281 248.791L146.424 231.194L151.419 145.658Z" fill="#C5DBB6"/>
<path d="M70.4058 203.921L407.676 242.924L397.874 325.842L60.5627 289.036L70.4058 203.921Z" fill="#4050AA"/>
</svg>
